<svg width="79" height="79" viewBox="0 0 79 79" fill="none" xmlns="http://www.w3.org/2000/svg">
<path fill-rule="evenodd" clip-rule="evenodd" d="M77.1204 29.3996L65.6797 21.811C62.6621 26.3603 56.528 27.602 51.9786 24.5844C47.4292 21.5669 46.1875 15.4326 49.2051 10.8833L37.7644 3.29468C30.5557 14.1625 33.5221 28.8165 44.39 36.0252C55.2578 43.2338 69.9118 40.2675 77.1204 29.3996ZM13.2901 9.88421L11.1828 23.4502C16.5773 24.2882 20.271 29.3405 19.4331 34.735C18.5951 40.1295 13.5428 43.8232 8.14831 42.9853L6.04102 56.5513C18.9278 58.553 30.9973 49.7291 32.9991 36.8423C35.0009 23.9555 26.1769 11.886 13.2901 9.88421ZM38.5084 69.1201L25.5766 73.7293C21.1982 61.4449 27.6072 47.9371 39.8915 43.5587C52.1759 39.1803 65.6837 45.5893 70.0621 57.8737L57.1303 62.4828C55.2974 57.3406 49.643 54.6577 44.5007 56.4905C39.3584 58.3234 36.6756 63.9778 38.5084 69.1201Z" fill="url(#paint0_radial)"/>
<path fill-rule="evenodd" clip-rule="evenodd" d="M50.5217 6.86435C50.5217 10.6554 47.4484 13.7287 43.6573 13.7287C39.8662 13.7287 36.793 10.6554 36.793 6.86435C36.793 3.07327 39.8662 0 43.6573 0C47.4484 0 50.5217 3.07327 50.5217 6.86435ZM12.9049 23.613C16.696 23.613 19.7692 20.5397 19.7692 16.7486C19.7692 12.9576 16.696 9.88428 12.9049 9.88428C9.1138 9.88428 6.04053 12.9576 6.04053 16.7486C6.04053 20.5397 9.1138 23.613 12.9049 23.613ZM6.86435 56.5622C10.6554 56.5622 13.7287 53.4889 13.7287 49.6978C13.7287 45.9068 10.6554 42.8335 6.86435 42.8335C3.07327 42.8335 0 45.9068 0 49.6978C0 53.4889 3.07327 56.5622 6.86435 56.5622ZM71.6637 31.8508C75.4547 31.8508 78.528 28.7775 78.528 24.9864C78.528 21.1953 75.4547 18.1221 71.6637 18.1221C67.8726 18.1221 64.7993 21.1953 64.7993 24.9864C64.7993 28.7775 67.8726 31.8508 71.6637 31.8508ZM69.9929 59.7452C69.9929 63.5363 66.9196 66.6096 63.1285 66.6096C59.3374 66.6096 56.2642 63.5363 56.2642 59.7452C56.2642 55.9541 59.3374 52.8809 63.1285 52.8809C66.9196 52.8809 69.9929 55.9541 69.9929 59.7452ZM32.1285 78.6096C35.9196 78.6096 38.9929 75.5363 38.9929 71.7452C38.9929 67.9541 35.9196 64.8809 32.1285 64.8809C28.3374 64.8809 25.2642 67.9541 25.2642 71.7452C25.2642 75.5363 28.3374 78.6096 32.1285 78.6096Z" fill="url(#paint1_radial)"/>
<defs>
<radialGradient id="paint0_radial" cx="0" cy="0" r="1" gradientUnits="userSpaceOnUse" gradientTransform="translate(42 39.0002) rotate(66.1135) scale(38.2786 38.3519)">
<stop stop-color="#26BCB4"/>
<stop offset="1" stop-color="#363FBC"/>
</radialGradient>
<radialGradient id="paint1_radial" cx="0" cy="0" r="1" gradientUnits="userSpaceOnUse" gradientTransform="translate(39 39) rotate(70.8398) scale(62.46 62.4461)">
<stop stop-color="#74ED95"/>
<stop offset="1" stop-color="#26BCB4"/>
</radialGradient>
</defs>
</svg>
