<?xml version="1.0" standalone="no"?>
<!DOCTYPE svg PUBLIC "-//W3C//DTD SVG 20010904//EN"
 "http://www.w3.org/TR/2001/REC-SVG-20010904/DTD/svg10.dtd">
<svg version="1.0" xmlns="http://www.w3.org/2000/svg"
 width="315.000000pt" height="315.000000pt" viewBox="0 0 315.000000 315.000000"
 preserveAspectRatio="xMidYMid meet">
<g transform="translate(0.000000,315.000000) scale(0.100000,-0.100000)"
fill="#000000" stroke="none">
<path d="M1650 3132 c-90 -31 -194 -174 -249 -340 -112 -344 -20 -718 238
-971 173 -168 386 -259 626 -266 173 -5 298 22 447 95 109 54 162 92 249 179
118 117 179 225 179 315 0 157 -121 280 -275 278 -101 -1 -181 -48 -240 -141
-125 -201 -408 -239 -590 -79 -85 74 -133 187 -130 303 3 81 21 140 70 220 88
146 40 321 -108 397 -53 27 -155 32 -217 10z"/>
<path d="M456 2748 c-128 -28 -218 -150 -211 -285 7 -124 93 -223 220 -254
127 -31 220 -104 276 -216 29 -59 34 -79 36 -155 2 -64 -3 -101 -17 -145 -54
-159 -211 -269 -378 -263 -37 1 -93 2 -124 2 -192 -3 -315 -215 -227 -391 43
-87 118 -137 229 -156 59 -10 211 -8 280 5 247 44 464 178 612 378 57 77 124
223 152 331 21 82 24 113 22 240 -3 125 -7 159 -30 235 -62 205 -162 357 -321
485 -159 128 -399 215 -519 189z"/>
<path d="M1779 1456 c-2 -2 -20 -7 -39 -10 -209 -33 -444 -178 -577 -356 -89
-118 -141 -232 -174 -380 -26 -117 -21 -323 10 -430 12 -41 23 -80 24 -85 1
-6 15 -31 29 -56 49 -84 135 -132 234 -131 106 0 194 54 240 144 34 68 40 129
19 208 -25 98 -26 101 -26 165 0 35 8 84 20 117 107 308 499 367 696 104 17
-22 29 -40 27 -40 -9 -2 14 -65 34 -96 94 -142 298 -165 418 -48 58 57 80 112
82 208 2 80 0 89 -37 165 -119 242 -338 422 -604 496 -61 16 -115 23 -226 25
-80 2 -147 2 -150 0z"/>
</g>
</svg>
